<?xml version="1.0" encoding="UTF-8" standalone="no" ?>
<!DOCTYPE svg PUBLIC "-//W3C//DTD SVG 1.1//EN" "http://www.w3.org/Graphics/SVG/1.1/DTD/svg11.dtd">
<svg xmlns="http://www.w3.org/2000/svg" xmlns:xlink="http://www.w3.org/1999/xlink" version="1.1" width="1080" height="1080" viewBox="0 0 1080 1080" xml:space="preserve">
<desc>Created with Fabric.js 5.2.4</desc>
<defs>
</defs>
<rect x="0" y="0" width="100%" height="100%" fill="transparent"></rect>
<g transform="matrix(1 0 0 1 540 540)" id="b7bdbbfd-760b-4bc1-8dba-e8dca8dea8f4"  >
<rect style="stroke: none; stroke-width: 1; stroke-dasharray: none; stroke-linecap: butt; stroke-dashoffset: 0; stroke-linejoin: miter; stroke-miterlimit: 4; fill: rgb(255,255,255); fill-rule: nonzero; opacity: 1; visibility: hidden;" vector-effect="non-scaling-stroke"  x="-540" y="-540" rx="0" ry="0" width="1080" height="1080" />
</g>
<g transform="matrix(1 0 0 1 540 540)" id="6f765c1e-4b81-4ec2-9618-a7eb7637c4b1"  >
</g>
<g transform="matrix(5.4 0 0 5.4 540 540)" clip-path="url(#CLIPPATH_8)"  >
<linearGradient id="SVGID_paint0_linear_238_1313_6" gradientUnits="userSpaceOnUse" gradientTransform="matrix(1 0 0 1 0 0)"  x1="14" y1="26" x2="179" y2="179.5">
<stop offset="0%" style="stop-color:rgb(17,109,255);stop-opacity: 1"/>
<stop offset="100%" style="stop-color:rgb(17,109,255);stop-opacity: 1"/>
</linearGradient>
<clipPath id="CLIPPATH_8" >
	<rect transform="matrix(1 0 0 1 0 0)" id="clip0_238_1313" x="-100" y="-100" rx="0" ry="0" width="200" height="200" />
</clipPath>
<path style="stroke: none; stroke-width: 1; stroke-dasharray: none; stroke-linecap: butt; stroke-dashoffset: 0; stroke-linejoin: miter; stroke-miterlimit: 4; fill: url(#SVGID_paint0_linear_238_1313_6); fill-rule: evenodd; opacity: 1;"  transform=" translate(-100, -100)" d="M 0.00000437114 0.00000276541 L 0.00000754022 50 L 100 100 L 0.00000218557 150 L 0 200 L 100 150 L 100 200 L 200 150 L 200 100 L 200 50 L 100 0 L 100 50 L 0.00000437114 0.00000276541 Z M 100 50 L 100 100 L 100 150 L 200 100 L 100 50 Z" stroke-linecap="round" />
</g>
<g transform="matrix(NaN NaN NaN NaN 0 0)"  >
<g style=""   >
</g>
</g>
</svg>