<svg id="visual" viewBox="0 0 960 540" width="960" height="540" xmlns="http://www.w3.org/2000/svg" xmlns:xlink="http://www.w3.org/1999/xlink" version="1.1"><path d="M0 91L137 107L274 79L411 81L549 87L686 109L823 137L960 78L960 541L823 541L686 541L549 541L411 541L274 541L137 541L0 541Z" fill="#ffffff"></path><path d="M0 232L137 188L274 239L411 203L549 227L686 210L823 214L960 190L960 541L823 541L686 541L549 541L411 541L274 541L137 541L0 541Z" fill="#fdfdfd"></path><path d="M0 346L137 343L274 294L411 309L549 332L686 323L823 332L960 292L960 541L823 541L686 541L549 541L411 541L274 541L137 541L0 541Z" fill="#fbfbfb"></path><path d="M0 431L137 436L274 413L411 407L549 403L686 423L823 410L960 411L960 541L823 541L686 541L549 541L411 541L274 541L137 541L0 541Z" fill="#fafafa"></path></svg>