<?xml version="1.0" encoding="UTF-8"?>
<svg xmlns="http://www.w3.org/2000/svg" id="Layer_1" viewBox="0 0 485.34 485.34">
  <defs>
    <style>.cls-1{fill:#001e57;}</style>
  </defs>
  <polygon class="cls-1" points="88.39 408.81 88.39 408.81 88.43 408.84 88.43 408.85 88.39 408.81"></polygon>
  <polygon class="cls-1" points="18.9 372.72 18.9 372.72 18.91 372.71 18.9 372.72"></polygon>
  <path class="cls-1" d="M485.34,408.14c-.02-1.27-.1-25.99-7.91-52.43h0c-4.01-13.47-10.02-27.52-19.64-39.18-4.82-5.82-10.57-11.03-17.4-15.05-6.82-4.03-14.7-6.82-23.47-7.91h-.06s-.97-.07-.97-.07h-.06s-.07,0-.07,0c-2.94,0-6.56,.27-11.11,.72-16.94,1.71-46.62,6.27-82.01,12.18-53.02,8.86-118.58,20.74-170.91,30.4-26.16,4.83-49.01,9.11-65.32,12.18-8.16,1.54-14.68,2.77-19.16,3.62-2.24,.43-3.97,.75-5.15,.98l-1.33,.25-.34,.06h-.06c-15.91,1.02-30.63,7.56-41.47,18.82C7.05,384.97,0,402.54,0,423.17v.11S0,423.28,0,423.28c0,0,0,0,0,.01v.02h0c.01,16.94,5.64,32.25,15.17,43.52,4.77,5.64,10.53,10.26,17.04,13.49,6.49,3.22,13.74,5.01,21.29,5.02h0s.03,0,.03,0h.03c2.04,0,4.04-.16,6-.38h.02s1.1-.14,1.1-.14h.01s0,0,0,0c3.93-.52,7.79-1.49,11.5-2.89h0s62.78-16.16,62.78-16.16c.24,3.32,.47,6.65,.47,10.18,0,2.82,1.27,5.49,3.45,7.27,1.69,1.38,3.79,2.11,5.94,2.11l1.88-.19,331.11-67.73c4.36-.9,7.5-4.74,7.5-9.2v-.09Zm-383.84,31.43h0v-.04s0-.03,0-.03c0-12.31-5.39-23.08-13.07-30.64h0s-.02-.03-.04-.04h0s-.02-.02-.02-.02l.02,.02,24.17-5.65c2.91,3.7,5.7,7.69,8.22,12.15,5.03,8.9,9.13,19.43,11.72,31.72l-33.78,8.7c1.78-4.93,2.78-10.35,2.79-16.16Zm2.8-70.24c-1.81-1.3-3.61-2.48-5.4-3.6,37.4-7.02,99.35-18.54,159.01-29.11,36.6-6.48,72.31-12.6,100.86-17.09,14.27-2.24,26.76-4.08,36.62-5.35,4.93-.63,9.2-1.12,12.67-1.45,3.04-.29,5.42-.43,7.01-.46,6.07,.83,11.22,2.68,15.8,5.37,8.19,4.82,14.73,12.51,19.85,21.86h0c7.68,13.97,11.83,31.38,13.83,45.13h0c.94,6.35,1.43,11.86,1.7,15.99l-312.49,63.92c-1.13-16.97-4.67-31.91-9.95-44.73-5.34-12.97-12.37-23.74-20.05-32.61h0s-1.16-1.34-1.16-1.34h0s-.01-.02-.01-.02c-5.87-6.57-12.08-12.09-18.27-16.52Zm-85.53,53.96h0c.03-16.52,5.42-28.98,13.64-37.54,8.26-8.52,19.49-13.27,32.37-13.29h.05c1.29,0,3.71,.31,6.57,1.11,5.13,1.42,11.9,4.33,18.93,8.94,2.22,1.46,4.49,3.17,6.75,4.99l-39.35,9.2c-4.28,1.01-7.25,4.82-7.25,9.14l.06,1.08h0c.55,4.73,4.56,8.3,9.32,8.31h.12c4.77-.02,10.79,2.52,15.25,6.98h0c4.55,4.52,7.49,10.56,7.49,17.28h0s0,.01,0,.01c0,4.7-.92,8.54-2.42,11.8-2.26,4.87-5.88,8.56-10.58,11.21-.97,.55-2.04,1.03-3.16,1.5l-9.02,2.32c-1.32,.15-2.65,.24-3.97,.24h-.02c-4.62,0-8.96-1.07-13.02-3.08-6.07-3-11.51-8.19-15.44-15.12l-1.79,1.02,1.79-1.02c-3.93-6.91-6.32-15.5-6.33-25.09Z"></path>
  <path class="cls-1" d="M219.11,244.48h0l.99,.05c4.75,0,8.81-3.58,9.33-8.4,3.27-30.88,12.98-53.74,25.89-71.13,9.7-13.04,21.27-23.03,33.57-30.74,18.43-11.57,38.52-17.95,55.61-21.36,17.04-3.41,31.06-3.88,37.26-3.88h.04c1.16,0,2.04,.02,2.61,.03h-.01s.65,.02,.65,.02h-.02s.15,0,.15,0h-.01s.02,0,.02,0h.47c4.97,.01,9.11-3.89,9.37-8.91h0s.01-.47,.01-.47c0-4.97-3.9-9.11-8.92-9.37-.14,0-1.66-.08-4.32-.08-12.6,.04-50.85,1.52-88.76,20.22-18.94,9.37-37.8,23.17-52.79,43.33-15,20.15-25.96,46.56-29.5,80.37l-.05,.99c0,4.75,3.58,8.81,8.4,9.33Z"></path>
  <path class="cls-1" d="M170.75,386.52c2.25,1.12,4.47,3,6.52,5.54h0c3.08,3.78,5.67,9.01,7.49,13.9h0c1.85,4.92,2.98,9.41,3.65,12.07,1.07,4.24,4.87,7.11,9.1,7.11l1.79-.17,233.29-45.15c4.42-.85,7.6-4.71,7.6-9.21h0c0-.77-.09-5.54-2.36-12.37-2.27-6.83-6.79-15.73-15.44-24.36-1.83-1.83-4.25-2.75-6.64-2.75-2.4,0-4.81,.92-6.63,2.75-1.83,1.83-2.75,4.25-2.75,6.65,0,2.4,.93,4.8,2.75,6.63,5.99,6,8.93,11.69,10.52,16.06l-215.4,41.69c-1.68-5.32-4.14-11.9-7.97-18.29h0c-1.94-3.23-4.24-6.42-7.05-9.34-2.8-2.91-6.14-5.56-10.08-7.53-1.34-.67-2.78-.99-4.19-.99-3.44,0-6.76,1.9-8.4,5.19-.67,1.34-.99,2.78-.99,4.19,0,1.58,.44,3.12,1.2,4.51h-3.83l7.82,3.9Z"></path>
  <polygon class="cls-1" points="186.41 168.26 186.34 168.31 186.34 168.31 186.41 168.26"></polygon>
  <polygon class="cls-1" points="186.34 168.31 186.34 168.31 186.34 168.32 186.34 168.31"></polygon>
  <polygon class="cls-1" points="120.69 156.23 120.69 156.23 120.69 156.23 120.69 156.23"></polygon>
  <path class="cls-1" d="M9.31,338.48h0s0,0,0,0c0,0,0,.01,.01,.02h0c1.83,2.52,4.7,3.86,7.59,3.86,1.9,0,3.84-.58,5.5-1.78l-1.21-1.67,1.21,1.67c2.53-1.83,3.88-4.7,3.88-7.6,0-1.21-.32-2.4-.8-3.55l.24-.17-1.13-1.66c-.17-.28-4.89-7.33-5.7-20.97l56.36-56.36c.02,2.76,1.24,5.37,3.36,7.14,15.42,12.82,35.54,21.21,58.23,26.56,22.72,5.33,48.14,7.59,74.49,7.6,33.33,0,68.16-3.63,100.73-9.55,1.88-.34,3.61-1.25,4.96-2.6l28.34-28.34,79.16-21.59h13.81c.74,4.04,1.47,9.42,1.47,15.16v.12h0v.09c0,5.87-.79,12-2.73,17.05h0c-.42,1.1-.62,2.23-.62,3.34,0,3.78,2.3,7.34,6.05,8.77,1.09,.42,2.23,.62,3.34,.62,3.78,0,7.34-2.3,8.77-6.05h0c3.06-8.07,3.95-16.37,3.96-23.83h0c0-5.72-.55-10.93-1.21-15.28h11.05c2.49,0,4.88-.99,6.64-2.75,1.76-1.76,2.75-4.15,2.75-6.64v-.1c-.05-1.59-.17-54.83-24.33-109.08h0c-7.28-16.3-16.8-32.72-29.22-47.78h0s-.33-.39-.33-.39h0c-8.37-10.1-18.04-19.57-29.26-27.95h0C366.66,13.82,329.16,0,280.47,0h-.17C266.98,0,254.59,.79,243.13,2.16c-30.44,3.63-57.91,17.03-79.32,36.96-9.79,9.11-18.29,19.6-25.28,31.14-15.48,10.16-27.2,23.44-35.94,37.57-13.67,22.13-20.37,46.24-23.81,64.88h0c-3.42,18.64-3.53,31.89-3.53,32.25v18.77L2.75,296.23c-1.74,1.74-2.71,4.11-2.74,6.57H0s0,.06,0,.06H0c0,22.12,8.43,34.41,9.31,35.61ZM101.87,156.38c3.71-12.89,9.18-26.7,17.06-39.27,.57-.91,1.3-1.74,1.9-2.64-.07,.31-.17,.61-.24,.93l-4.45,20.78h0s0,0,0,0h0s0,0,0,0c0,.01,0,.02,0,.04h0s0,0,0,0h0s0,.08-.01,.12h-.01s0,0,0,0h.01c-.34,1.66-.53,3.32-.53,4.97h0s0,0,0,0v.2s.02,0,.02,0c.05,5.43,1.89,10.58,5.08,14.72,3.23,4.2,7.9,7.39,13.42,8.77l31.21,7.8c1.97,.49,3.97,.73,5.94,.73,5.58,0,10.86-1.91,15.08-5.22,4.22-3.31,7.41-8.08,8.71-13.7h0s0,0,0,0h0s0-.02,0-.02h0c12.14-52.61,57.29-91.2,111.12-94.62,7.24-.46,14.65-.73,22.1-.73h.03c14.96,0,30.09,1.1,44.39,3.88,13.67,2.66,26.54,6.88,37.9,13.01,6.12,7.54,11.53,15.47,16.22,23.63,15.98,27.82,24.14,58.08,28.19,81.32,2.03,11.62,3.04,21.47,3.55,28.37,.03,.46,.05,.83,.08,1.26h-35.49l-2.06,.28-.14,.02-82.91,22.61c-1.58,.43-3.01,1.26-4.17,2.42l-27.98,27.98c-30.75,5.44-63.49,8.77-94.5,8.77h-.09c-25.25,0-49.34-2.21-70.13-7.1-19.04-4.46-35.15-11.26-47.13-20.2v-40.39h0v-.02h0c0-.81,.39-22.92,7.84-48.7h0ZM176.6,52.87c18.64-17.34,42.41-28.91,68.76-32.06,10.73-1.28,22.37-2.03,34.94-2.03,40.86,.04,71.64,10.26,95.54,25.85-15.69-3.01-31.83-4.15-47.56-4.15-7.9,0-15.7,.29-23.29,.77-62.15,3.97-114.18,48.45-128.2,109.07h0s0,0,0,0h0s-.01,.04-.01,.05c-.32,1.36-1.01,2.37-2.02,3.18-.98,.77-2.19,1.2-3.44,1.21l-1.56-.19-31.1-7.77c-1.32-.34-2.32-1.03-3.11-2.03-.75-.97-1.17-2.17-1.18-3.41l.14-1.35,4.43-20.68c5.58-26.05,19.02-49.12,37.66-66.46Z"></path>
</svg>
